<svg id="Layer_1" data-name="Layer 1" xmlns="http://www.w3.org/2000/svg" xmlns:xlink="http://www.w3.org/1999/xlink" viewBox="0 0 23 23"><defs><style>.cls-1,.cls-3{fill:#fff;}.cls-1,.cls-8{stroke:#e8e8e8;stroke-miterlimit:10;stroke-width:0.96px;}.cls-2,.cls-8{fill:none;}.cls-4{clip-path:url(#clip-path);}.cls-5{clip-path:url(#clip-path-2);}.cls-6{fill:#c0001a;}.cls-7{fill:#f8e72a;}</style><clipPath id="clip-path"><circle id="_Ellipse_" data-name="&lt;Ellipse&gt;" class="cls-1" cx="11.51" cy="11.5" r="11.01"/></clipPath><clipPath id="clip-path-2"><rect class="cls-2" x="-6.68" y="0.94" width="36.08" height="21"/></clipPath></defs><title>Language_icon</title><circle id="_Ellipse_2" data-name="&lt;Ellipse&gt;" class="cls-3" cx="11.51" cy="11.5" r="11.01"/><g class="cls-4"><g class="cls-5"><rect class="cls-6" x="-6.68" y="0.94" width="36.08" height="21"/><path class="cls-7" d="M24,21.94h5.42l-18-10.51ZM-6.68.94l18,10.49L-1.25.94Z"/><path class="cls-7" d="M9.53,21.94h3.66L11.37,11.43Zm0-21,1.83,10.49L13.19.94Z"/><path class="cls-7" d="M-6.68,21.94h5.42L11.37,11.43ZM24,.94,11.37,11.43,29.41.94Z"/><path class="cls-7" d="M-6.68,13.56l18-2.13-18-2.11Zm18-2.13,18,2.13V9.32Z"/><g class="cls-5"><path class="cls-6" d="M11.37,7.66a3.77,3.77,0,1,1-3.78,3.77,3.8,3.8,0,0,1,3.78-3.77"/><path class="cls-7" d="M11.37,8.42a3,3,0,1,1-3,3,3,3,0,0,1,3-3"/></g></g></g><circle id="_Ellipse_3" data-name="&lt;Ellipse&gt;" class="cls-8" cx="11.51" cy="11.5" r="11.01"/></svg>